<?xml version="1.0" encoding="utf-8" standalone="no"?>
<!DOCTYPE svg PUBLIC "-//W3C//DTD SVG 1.1//EN"
  "http://www.w3.org/Graphics/SVG/1.1/DTD/svg11.dtd">
<svg xmlns:xlink="http://www.w3.org/1999/xlink" width="460.8pt" height="345.6pt" viewBox="0 0 460.8 345.6" xmlns="http://www.w3.org/2000/svg" version="1.1">
 <metadata>
  <rdf:RDF xmlns:dc="http://purl.org/dc/elements/1.1/" xmlns:cc="http://creativecommons.org/ns#" xmlns:rdf="http://www.w3.org/1999/02/22-rdf-syntax-ns#">
   <cc:Work>
    <dc:type rdf:resource="http://purl.org/dc/dcmitype/StillImage"/>
    <dc:date>2024-04-07T16:16:15.746683</dc:date>
    <dc:format>image/svg+xml</dc:format>
    <dc:creator>
     <cc:Agent>
      <dc:title>Matplotlib v3.5.1, https://matplotlib.org/</dc:title>
     </cc:Agent>
    </dc:creator>
   </cc:Work>
  </rdf:RDF>
 </metadata>
 <defs>
  <style type="text/css">*{stroke-linejoin: round; stroke-linecap: butt}</style>
 </defs>
 <g id="figure_1">
  <g id="patch_1">
   <path d="M 0 345.6 
L 460.8 345.6 
L 460.8 0 
L 0 0 
z
" style="fill: #ffffff"/>
  </g>
  <g id="axes_1">
   <g id="patch_2">
    <path d="M 57.6 307.584 
L 414.72 307.584 
L 414.72 41.472 
L 57.6 41.472 
z
" style="fill: #ffffff"/>
   </g>
   <g id="matplotlib.axis_1">
    <g id="xtick_1">
     <g id="line2d_1">
      <path d="M 73.832727 307.584 
L 73.832727 41.472 
" clip-path="url(#pfcf1215aed)" style="fill: none; stroke-dasharray: 3.2,0.8,0.5,0.8; stroke-dashoffset: 0; stroke: #a9a9a9; stroke-width: 0.5"/>
     </g>
     <g id="line2d_2">
      <defs>
       <path id="m472fcb4321" d="M 0 0 
L 0 3.5 
" style="stroke: #000000; stroke-width: 0.8"/>
      </defs>
      <g>
       <use xlink:href="#m472fcb4321" x="73.832727" y="307.584" style="stroke: #000000; stroke-width: 0.8"/>
      </g>
     </g>
     <g id="text_1">
      <!-- 0 -->
      <g transform="translate(70.651477 322.182437)scale(0.1 -0.1)">
       <defs>
        <path id="DejaVuSans-30" d="M 2034 4250 
Q 1547 4250 1301 3770 
Q 1056 3291 1056 2328 
Q 1056 1369 1301 889 
Q 1547 409 2034 409 
Q 2525 409 2770 889 
Q 3016 1369 3016 2328 
Q 3016 3291 2770 3770 
Q 2525 4250 2034 4250 
z
M 2034 4750 
Q 2819 4750 3233 4129 
Q 3647 3509 3647 2328 
Q 3647 1150 3233 529 
Q 2819 -91 2034 -91 
Q 1250 -91 836 529 
Q 422 1150 422 2328 
Q 422 3509 836 4129 
Q 1250 4750 2034 4750 
z
" transform="scale(0.015625)"/>
       </defs>
       <use xlink:href="#DejaVuSans-30"/>
      </g>
     </g>
    </g>
    <g id="xtick_2">
     <g id="line2d_3">
      <path d="M 118.923636 307.584 
L 118.923636 41.472 
" clip-path="url(#pfcf1215aed)" style="fill: none; stroke-dasharray: 3.2,0.8,0.5,0.8; stroke-dashoffset: 0; stroke: #a9a9a9; stroke-width: 0.5"/>
     </g>
     <g id="line2d_4">
      <g>
       <use xlink:href="#m472fcb4321" x="118.923636" y="307.584" style="stroke: #000000; stroke-width: 0.8"/>
      </g>
     </g>
     <g id="text_2">
      <!-- 50 -->
      <g transform="translate(112.561136 322.182437)scale(0.1 -0.1)">
       <defs>
        <path id="DejaVuSans-35" d="M 691 4666 
L 3169 4666 
L 3169 4134 
L 1269 4134 
L 1269 2991 
Q 1406 3038 1543 3061 
Q 1681 3084 1819 3084 
Q 2600 3084 3056 2656 
Q 3513 2228 3513 1497 
Q 3513 744 3044 326 
Q 2575 -91 1722 -91 
Q 1428 -91 1123 -41 
Q 819 9 494 109 
L 494 744 
Q 775 591 1075 516 
Q 1375 441 1709 441 
Q 2250 441 2565 725 
Q 2881 1009 2881 1497 
Q 2881 1984 2565 2268 
Q 2250 2553 1709 2553 
Q 1456 2553 1204 2497 
Q 953 2441 691 2322 
L 691 4666 
z
" transform="scale(0.015625)"/>
       </defs>
       <use xlink:href="#DejaVuSans-35"/>
       <use xlink:href="#DejaVuSans-30" x="63.623047"/>
      </g>
     </g>
    </g>
    <g id="xtick_3">
     <g id="line2d_5">
      <path d="M 164.014545 307.584 
L 164.014545 41.472 
" clip-path="url(#pfcf1215aed)" style="fill: none; stroke-dasharray: 3.2,0.8,0.5,0.8; stroke-dashoffset: 0; stroke: #a9a9a9; stroke-width: 0.5"/>
     </g>
     <g id="line2d_6">
      <g>
       <use xlink:href="#m472fcb4321" x="164.014545" y="307.584" style="stroke: #000000; stroke-width: 0.8"/>
      </g>
     </g>
     <g id="text_3">
      <!-- 100 -->
      <g transform="translate(154.470795 322.182437)scale(0.1 -0.1)">
       <defs>
        <path id="DejaVuSans-31" d="M 794 531 
L 1825 531 
L 1825 4091 
L 703 3866 
L 703 4441 
L 1819 4666 
L 2450 4666 
L 2450 531 
L 3481 531 
L 3481 0 
L 794 0 
L 794 531 
z
" transform="scale(0.015625)"/>
       </defs>
       <use xlink:href="#DejaVuSans-31"/>
       <use xlink:href="#DejaVuSans-30" x="63.623047"/>
       <use xlink:href="#DejaVuSans-30" x="127.246094"/>
      </g>
     </g>
    </g>
    <g id="xtick_4">
     <g id="line2d_7">
      <path d="M 209.105455 307.584 
L 209.105455 41.472 
" clip-path="url(#pfcf1215aed)" style="fill: none; stroke-dasharray: 3.2,0.8,0.5,0.8; stroke-dashoffset: 0; stroke: #a9a9a9; stroke-width: 0.5"/>
     </g>
     <g id="line2d_8">
      <g>
       <use xlink:href="#m472fcb4321" x="209.105455" y="307.584" style="stroke: #000000; stroke-width: 0.8"/>
      </g>
     </g>
     <g id="text_4">
      <!-- 150 -->
      <g transform="translate(199.561705 322.182437)scale(0.1 -0.1)">
       <use xlink:href="#DejaVuSans-31"/>
       <use xlink:href="#DejaVuSans-35" x="63.623047"/>
       <use xlink:href="#DejaVuSans-30" x="127.246094"/>
      </g>
     </g>
    </g>
    <g id="xtick_5">
     <g id="line2d_9">
      <path d="M 254.196364 307.584 
L 254.196364 41.472 
" clip-path="url(#pfcf1215aed)" style="fill: none; stroke-dasharray: 3.2,0.8,0.5,0.8; stroke-dashoffset: 0; stroke: #a9a9a9; stroke-width: 0.5"/>
     </g>
     <g id="line2d_10">
      <g>
       <use xlink:href="#m472fcb4321" x="254.196364" y="307.584" style="stroke: #000000; stroke-width: 0.8"/>
      </g>
     </g>
     <g id="text_5">
      <!-- 200 -->
      <g transform="translate(244.652614 322.182437)scale(0.1 -0.1)">
       <defs>
        <path id="DejaVuSans-32" d="M 1228 531 
L 3431 531 
L 3431 0 
L 469 0 
L 469 531 
Q 828 903 1448 1529 
Q 2069 2156 2228 2338 
Q 2531 2678 2651 2914 
Q 2772 3150 2772 3378 
Q 2772 3750 2511 3984 
Q 2250 4219 1831 4219 
Q 1534 4219 1204 4116 
Q 875 4013 500 3803 
L 500 4441 
Q 881 4594 1212 4672 
Q 1544 4750 1819 4750 
Q 2544 4750 2975 4387 
Q 3406 4025 3406 3419 
Q 3406 3131 3298 2873 
Q 3191 2616 2906 2266 
Q 2828 2175 2409 1742 
Q 1991 1309 1228 531 
z
" transform="scale(0.015625)"/>
       </defs>
       <use xlink:href="#DejaVuSans-32"/>
       <use xlink:href="#DejaVuSans-30" x="63.623047"/>
       <use xlink:href="#DejaVuSans-30" x="127.246094"/>
      </g>
     </g>
    </g>
    <g id="xtick_6">
     <g id="line2d_11">
      <path d="M 299.287273 307.584 
L 299.287273 41.472 
" clip-path="url(#pfcf1215aed)" style="fill: none; stroke-dasharray: 3.2,0.8,0.5,0.8; stroke-dashoffset: 0; stroke: #a9a9a9; stroke-width: 0.5"/>
     </g>
     <g id="line2d_12">
      <g>
       <use xlink:href="#m472fcb4321" x="299.287273" y="307.584" style="stroke: #000000; stroke-width: 0.8"/>
      </g>
     </g>
     <g id="text_6">
      <!-- 250 -->
      <g transform="translate(289.743523 322.182437)scale(0.1 -0.1)">
       <use xlink:href="#DejaVuSans-32"/>
       <use xlink:href="#DejaVuSans-35" x="63.623047"/>
       <use xlink:href="#DejaVuSans-30" x="127.246094"/>
      </g>
     </g>
    </g>
    <g id="xtick_7">
     <g id="line2d_13">
      <path d="M 344.378182 307.584 
L 344.378182 41.472 
" clip-path="url(#pfcf1215aed)" style="fill: none; stroke-dasharray: 3.2,0.8,0.5,0.8; stroke-dashoffset: 0; stroke: #a9a9a9; stroke-width: 0.5"/>
     </g>
     <g id="line2d_14">
      <g>
       <use xlink:href="#m472fcb4321" x="344.378182" y="307.584" style="stroke: #000000; stroke-width: 0.8"/>
      </g>
     </g>
     <g id="text_7">
      <!-- 300 -->
      <g transform="translate(334.834432 322.182437)scale(0.1 -0.1)">
       <defs>
        <path id="DejaVuSans-33" d="M 2597 2516 
Q 3050 2419 3304 2112 
Q 3559 1806 3559 1356 
Q 3559 666 3084 287 
Q 2609 -91 1734 -91 
Q 1441 -91 1130 -33 
Q 819 25 488 141 
L 488 750 
Q 750 597 1062 519 
Q 1375 441 1716 441 
Q 2309 441 2620 675 
Q 2931 909 2931 1356 
Q 2931 1769 2642 2001 
Q 2353 2234 1838 2234 
L 1294 2234 
L 1294 2753 
L 1863 2753 
Q 2328 2753 2575 2939 
Q 2822 3125 2822 3475 
Q 2822 3834 2567 4026 
Q 2313 4219 1838 4219 
Q 1578 4219 1281 4162 
Q 984 4106 628 3988 
L 628 4550 
Q 988 4650 1302 4700 
Q 1616 4750 1894 4750 
Q 2613 4750 3031 4423 
Q 3450 4097 3450 3541 
Q 3450 3153 3228 2886 
Q 3006 2619 2597 2516 
z
" transform="scale(0.015625)"/>
       </defs>
       <use xlink:href="#DejaVuSans-33"/>
       <use xlink:href="#DejaVuSans-30" x="63.623047"/>
       <use xlink:href="#DejaVuSans-30" x="127.246094"/>
      </g>
     </g>
    </g>
    <g id="xtick_8">
     <g id="line2d_15">
      <path d="M 389.469091 307.584 
L 389.469091 41.472 
" clip-path="url(#pfcf1215aed)" style="fill: none; stroke-dasharray: 3.2,0.8,0.5,0.8; stroke-dashoffset: 0; stroke: #a9a9a9; stroke-width: 0.5"/>
     </g>
     <g id="line2d_16">
      <g>
       <use xlink:href="#m472fcb4321" x="389.469091" y="307.584" style="stroke: #000000; stroke-width: 0.8"/>
      </g>
     </g>
     <g id="text_8">
      <!-- 350 -->
      <g transform="translate(379.925341 322.182437)scale(0.1 -0.1)">
       <use xlink:href="#DejaVuSans-33"/>
       <use xlink:href="#DejaVuSans-35" x="63.623047"/>
       <use xlink:href="#DejaVuSans-30" x="127.246094"/>
      </g>
     </g>
    </g>
    <g id="text_9">
     <!-- Rotor Angle [deg] -->
     <g transform="translate(192.042812 335.860562)scale(0.1 -0.1)">
      <defs>
       <path id="DejaVuSans-52" d="M 2841 2188 
Q 3044 2119 3236 1894 
Q 3428 1669 3622 1275 
L 4263 0 
L 3584 0 
L 2988 1197 
Q 2756 1666 2539 1819 
Q 2322 1972 1947 1972 
L 1259 1972 
L 1259 0 
L 628 0 
L 628 4666 
L 2053 4666 
Q 2853 4666 3247 4331 
Q 3641 3997 3641 3322 
Q 3641 2881 3436 2590 
Q 3231 2300 2841 2188 
z
M 1259 4147 
L 1259 2491 
L 2053 2491 
Q 2509 2491 2742 2702 
Q 2975 2913 2975 3322 
Q 2975 3731 2742 3939 
Q 2509 4147 2053 4147 
L 1259 4147 
z
" transform="scale(0.015625)"/>
       <path id="DejaVuSans-6f" d="M 1959 3097 
Q 1497 3097 1228 2736 
Q 959 2375 959 1747 
Q 959 1119 1226 758 
Q 1494 397 1959 397 
Q 2419 397 2687 759 
Q 2956 1122 2956 1747 
Q 2956 2369 2687 2733 
Q 2419 3097 1959 3097 
z
M 1959 3584 
Q 2709 3584 3137 3096 
Q 3566 2609 3566 1747 
Q 3566 888 3137 398 
Q 2709 -91 1959 -91 
Q 1206 -91 779 398 
Q 353 888 353 1747 
Q 353 2609 779 3096 
Q 1206 3584 1959 3584 
z
" transform="scale(0.015625)"/>
       <path id="DejaVuSans-74" d="M 1172 4494 
L 1172 3500 
L 2356 3500 
L 2356 3053 
L 1172 3053 
L 1172 1153 
Q 1172 725 1289 603 
Q 1406 481 1766 481 
L 2356 481 
L 2356 0 
L 1766 0 
Q 1100 0 847 248 
Q 594 497 594 1153 
L 594 3053 
L 172 3053 
L 172 3500 
L 594 3500 
L 594 4494 
L 1172 4494 
z
" transform="scale(0.015625)"/>
       <path id="DejaVuSans-72" d="M 2631 2963 
Q 2534 3019 2420 3045 
Q 2306 3072 2169 3072 
Q 1681 3072 1420 2755 
Q 1159 2438 1159 1844 
L 1159 0 
L 581 0 
L 581 3500 
L 1159 3500 
L 1159 2956 
Q 1341 3275 1631 3429 
Q 1922 3584 2338 3584 
Q 2397 3584 2469 3576 
Q 2541 3569 2628 3553 
L 2631 2963 
z
" transform="scale(0.015625)"/>
       <path id="DejaVuSans-20" transform="scale(0.015625)"/>
       <path id="DejaVuSans-41" d="M 2188 4044 
L 1331 1722 
L 3047 1722 
L 2188 4044 
z
M 1831 4666 
L 2547 4666 
L 4325 0 
L 3669 0 
L 3244 1197 
L 1141 1197 
L 716 0 
L 50 0 
L 1831 4666 
z
" transform="scale(0.015625)"/>
       <path id="DejaVuSans-6e" d="M 3513 2113 
L 3513 0 
L 2938 0 
L 2938 2094 
Q 2938 2591 2744 2837 
Q 2550 3084 2163 3084 
Q 1697 3084 1428 2787 
Q 1159 2491 1159 1978 
L 1159 0 
L 581 0 
L 581 3500 
L 1159 3500 
L 1159 2956 
Q 1366 3272 1645 3428 
Q 1925 3584 2291 3584 
Q 2894 3584 3203 3211 
Q 3513 2838 3513 2113 
z
" transform="scale(0.015625)"/>
       <path id="DejaVuSans-67" d="M 2906 1791 
Q 2906 2416 2648 2759 
Q 2391 3103 1925 3103 
Q 1463 3103 1205 2759 
Q 947 2416 947 1791 
Q 947 1169 1205 825 
Q 1463 481 1925 481 
Q 2391 481 2648 825 
Q 2906 1169 2906 1791 
z
M 3481 434 
Q 3481 -459 3084 -895 
Q 2688 -1331 1869 -1331 
Q 1566 -1331 1297 -1286 
Q 1028 -1241 775 -1147 
L 775 -588 
Q 1028 -725 1275 -790 
Q 1522 -856 1778 -856 
Q 2344 -856 2625 -561 
Q 2906 -266 2906 331 
L 2906 616 
Q 2728 306 2450 153 
Q 2172 0 1784 0 
Q 1141 0 747 490 
Q 353 981 353 1791 
Q 353 2603 747 3093 
Q 1141 3584 1784 3584 
Q 2172 3584 2450 3431 
Q 2728 3278 2906 2969 
L 2906 3500 
L 3481 3500 
L 3481 434 
z
" transform="scale(0.015625)"/>
       <path id="DejaVuSans-6c" d="M 603 4863 
L 1178 4863 
L 1178 0 
L 603 0 
L 603 4863 
z
" transform="scale(0.015625)"/>
       <path id="DejaVuSans-65" d="M 3597 1894 
L 3597 1613 
L 953 1613 
Q 991 1019 1311 708 
Q 1631 397 2203 397 
Q 2534 397 2845 478 
Q 3156 559 3463 722 
L 3463 178 
Q 3153 47 2828 -22 
Q 2503 -91 2169 -91 
Q 1331 -91 842 396 
Q 353 884 353 1716 
Q 353 2575 817 3079 
Q 1281 3584 2069 3584 
Q 2775 3584 3186 3129 
Q 3597 2675 3597 1894 
z
M 3022 2063 
Q 3016 2534 2758 2815 
Q 2500 3097 2075 3097 
Q 1594 3097 1305 2825 
Q 1016 2553 972 2059 
L 3022 2063 
z
" transform="scale(0.015625)"/>
       <path id="DejaVuSans-5b" d="M 550 4863 
L 1875 4863 
L 1875 4416 
L 1125 4416 
L 1125 -397 
L 1875 -397 
L 1875 -844 
L 550 -844 
L 550 4863 
z
" transform="scale(0.015625)"/>
       <path id="DejaVuSans-64" d="M 2906 2969 
L 2906 4863 
L 3481 4863 
L 3481 0 
L 2906 0 
L 2906 525 
Q 2725 213 2448 61 
Q 2172 -91 1784 -91 
Q 1150 -91 751 415 
Q 353 922 353 1747 
Q 353 2572 751 3078 
Q 1150 3584 1784 3584 
Q 2172 3584 2448 3432 
Q 2725 3281 2906 2969 
z
M 947 1747 
Q 947 1113 1208 752 
Q 1469 391 1925 391 
Q 2381 391 2643 752 
Q 2906 1113 2906 1747 
Q 2906 2381 2643 2742 
Q 2381 3103 1925 3103 
Q 1469 3103 1208 2742 
Q 947 2381 947 1747 
z
" transform="scale(0.015625)"/>
       <path id="DejaVuSans-5d" d="M 1947 4863 
L 1947 -844 
L 622 -844 
L 622 -397 
L 1369 -397 
L 1369 4416 
L 622 4416 
L 622 4863 
L 1947 4863 
z
" transform="scale(0.015625)"/>
      </defs>
      <use xlink:href="#DejaVuSans-52"/>
      <use xlink:href="#DejaVuSans-6f" x="64.982422"/>
      <use xlink:href="#DejaVuSans-74" x="126.164062"/>
      <use xlink:href="#DejaVuSans-6f" x="165.373047"/>
      <use xlink:href="#DejaVuSans-72" x="226.554688"/>
      <use xlink:href="#DejaVuSans-20" x="267.667969"/>
      <use xlink:href="#DejaVuSans-41" x="299.455078"/>
      <use xlink:href="#DejaVuSans-6e" x="367.863281"/>
      <use xlink:href="#DejaVuSans-67" x="431.242188"/>
      <use xlink:href="#DejaVuSans-6c" x="494.71875"/>
      <use xlink:href="#DejaVuSans-65" x="522.501953"/>
      <use xlink:href="#DejaVuSans-20" x="584.025391"/>
      <use xlink:href="#DejaVuSans-5b" x="615.8125"/>
      <use xlink:href="#DejaVuSans-64" x="654.826172"/>
      <use xlink:href="#DejaVuSans-65" x="718.302734"/>
      <use xlink:href="#DejaVuSans-67" x="779.826172"/>
      <use xlink:href="#DejaVuSans-5d" x="843.302734"/>
     </g>
    </g>
   </g>
   <g id="matplotlib.axis_2">
    <g id="ytick_1">
     <g id="line2d_17">
      <path d="M 57.6 294.544096 
L 414.72 294.544096 
" clip-path="url(#pfcf1215aed)" style="fill: none; stroke-dasharray: 3.2,0.8,0.5,0.8; stroke-dashoffset: 0; stroke: #a9a9a9; stroke-width: 0.5"/>
     </g>
     <g id="line2d_18">
      <defs>
       <path id="mbdd6c87df4" d="M 0 0 
L -3.5 0 
" style="stroke: #000000; stroke-width: 0.8"/>
      </defs>
      <g>
       <use xlink:href="#mbdd6c87df4" x="57.6" y="294.544096" style="stroke: #000000; stroke-width: 0.8"/>
      </g>
     </g>
     <g id="text_10">
      <!-- −5.0 -->
      <g transform="translate(26.317187 298.343315)scale(0.1 -0.1)">
       <defs>
        <path id="DejaVuSans-2212" d="M 678 2272 
L 4684 2272 
L 4684 1741 
L 678 1741 
L 678 2272 
z
" transform="scale(0.015625)"/>
        <path id="DejaVuSans-2e" d="M 684 794 
L 1344 794 
L 1344 0 
L 684 0 
L 684 794 
z
" transform="scale(0.015625)"/>
       </defs>
       <use xlink:href="#DejaVuSans-2212"/>
       <use xlink:href="#DejaVuSans-35" x="83.789062"/>
       <use xlink:href="#DejaVuSans-2e" x="147.412109"/>
       <use xlink:href="#DejaVuSans-30" x="179.199219"/>
      </g>
     </g>
    </g>
    <g id="ytick_2">
     <g id="line2d_19">
      <path d="M 57.6 263.684486 
L 414.72 263.684486 
" clip-path="url(#pfcf1215aed)" style="fill: none; stroke-dasharray: 3.2,0.8,0.5,0.8; stroke-dashoffset: 0; stroke: #a9a9a9; stroke-width: 0.5"/>
     </g>
     <g id="line2d_20">
      <g>
       <use xlink:href="#mbdd6c87df4" x="57.6" y="263.684486" style="stroke: #000000; stroke-width: 0.8"/>
      </g>
     </g>
     <g id="text_11">
      <!-- −2.5 -->
      <g transform="translate(26.317187 267.483705)scale(0.1 -0.1)">
       <use xlink:href="#DejaVuSans-2212"/>
       <use xlink:href="#DejaVuSans-32" x="83.789062"/>
       <use xlink:href="#DejaVuSans-2e" x="147.412109"/>
       <use xlink:href="#DejaVuSans-35" x="179.199219"/>
      </g>
     </g>
    </g>
    <g id="ytick_3">
     <g id="line2d_21">
      <path d="M 57.6 232.824876 
L 414.72 232.824876 
" clip-path="url(#pfcf1215aed)" style="fill: none; stroke-dasharray: 3.2,0.8,0.5,0.8; stroke-dashoffset: 0; stroke: #a9a9a9; stroke-width: 0.5"/>
     </g>
     <g id="line2d_22">
      <g>
       <use xlink:href="#mbdd6c87df4" x="57.6" y="232.824876" style="stroke: #000000; stroke-width: 0.8"/>
      </g>
     </g>
     <g id="text_12">
      <!-- 0.0 -->
      <g transform="translate(34.696875 236.624094)scale(0.1 -0.1)">
       <use xlink:href="#DejaVuSans-30"/>
       <use xlink:href="#DejaVuSans-2e" x="63.623047"/>
       <use xlink:href="#DejaVuSans-30" x="95.410156"/>
      </g>
     </g>
    </g>
    <g id="ytick_4">
     <g id="line2d_23">
      <path d="M 57.6 201.965265 
L 414.72 201.965265 
" clip-path="url(#pfcf1215aed)" style="fill: none; stroke-dasharray: 3.2,0.8,0.5,0.8; stroke-dashoffset: 0; stroke: #a9a9a9; stroke-width: 0.5"/>
     </g>
     <g id="line2d_24">
      <g>
       <use xlink:href="#mbdd6c87df4" x="57.6" y="201.965265" style="stroke: #000000; stroke-width: 0.8"/>
      </g>
     </g>
     <g id="text_13">
      <!-- 2.5 -->
      <g transform="translate(34.696875 205.764484)scale(0.1 -0.1)">
       <use xlink:href="#DejaVuSans-32"/>
       <use xlink:href="#DejaVuSans-2e" x="63.623047"/>
       <use xlink:href="#DejaVuSans-35" x="95.410156"/>
      </g>
     </g>
    </g>
    <g id="ytick_5">
     <g id="line2d_25">
      <path d="M 57.6 171.105655 
L 414.72 171.105655 
" clip-path="url(#pfcf1215aed)" style="fill: none; stroke-dasharray: 3.2,0.8,0.5,0.8; stroke-dashoffset: 0; stroke: #a9a9a9; stroke-width: 0.5"/>
     </g>
     <g id="line2d_26">
      <g>
       <use xlink:href="#mbdd6c87df4" x="57.6" y="171.105655" style="stroke: #000000; stroke-width: 0.8"/>
      </g>
     </g>
     <g id="text_14">
      <!-- 5.0 -->
      <g transform="translate(34.696875 174.904874)scale(0.1 -0.1)">
       <use xlink:href="#DejaVuSans-35"/>
       <use xlink:href="#DejaVuSans-2e" x="63.623047"/>
       <use xlink:href="#DejaVuSans-30" x="95.410156"/>
      </g>
     </g>
    </g>
    <g id="ytick_6">
     <g id="line2d_27">
      <path d="M 57.6 140.246044 
L 414.72 140.246044 
" clip-path="url(#pfcf1215aed)" style="fill: none; stroke-dasharray: 3.2,0.8,0.5,0.8; stroke-dashoffset: 0; stroke: #a9a9a9; stroke-width: 0.5"/>
     </g>
     <g id="line2d_28">
      <g>
       <use xlink:href="#mbdd6c87df4" x="57.6" y="140.246044" style="stroke: #000000; stroke-width: 0.8"/>
      </g>
     </g>
     <g id="text_15">
      <!-- 7.5 -->
      <g transform="translate(34.696875 144.045263)scale(0.1 -0.1)">
       <defs>
        <path id="DejaVuSans-37" d="M 525 4666 
L 3525 4666 
L 3525 4397 
L 1831 0 
L 1172 0 
L 2766 4134 
L 525 4134 
L 525 4666 
z
" transform="scale(0.015625)"/>
       </defs>
       <use xlink:href="#DejaVuSans-37"/>
       <use xlink:href="#DejaVuSans-2e" x="63.623047"/>
       <use xlink:href="#DejaVuSans-35" x="95.410156"/>
      </g>
     </g>
    </g>
    <g id="ytick_7">
     <g id="line2d_29">
      <path d="M 57.6 109.386434 
L 414.72 109.386434 
" clip-path="url(#pfcf1215aed)" style="fill: none; stroke-dasharray: 3.2,0.8,0.5,0.8; stroke-dashoffset: 0; stroke: #a9a9a9; stroke-width: 0.5"/>
     </g>
     <g id="line2d_30">
      <g>
       <use xlink:href="#mbdd6c87df4" x="57.6" y="109.386434" style="stroke: #000000; stroke-width: 0.8"/>
      </g>
     </g>
     <g id="text_16">
      <!-- 10.0 -->
      <g transform="translate(28.334375 113.185653)scale(0.1 -0.1)">
       <use xlink:href="#DejaVuSans-31"/>
       <use xlink:href="#DejaVuSans-30" x="63.623047"/>
       <use xlink:href="#DejaVuSans-2e" x="127.246094"/>
       <use xlink:href="#DejaVuSans-30" x="159.033203"/>
      </g>
     </g>
    </g>
    <g id="ytick_8">
     <g id="line2d_31">
      <path d="M 57.6 78.526824 
L 414.72 78.526824 
" clip-path="url(#pfcf1215aed)" style="fill: none; stroke-dasharray: 3.2,0.8,0.5,0.8; stroke-dashoffset: 0; stroke: #a9a9a9; stroke-width: 0.5"/>
     </g>
     <g id="line2d_32">
      <g>
       <use xlink:href="#mbdd6c87df4" x="57.6" y="78.526824" style="stroke: #000000; stroke-width: 0.8"/>
      </g>
     </g>
     <g id="text_17">
      <!-- 12.5 -->
      <g transform="translate(28.334375 82.326042)scale(0.1 -0.1)">
       <use xlink:href="#DejaVuSans-31"/>
       <use xlink:href="#DejaVuSans-32" x="63.623047"/>
       <use xlink:href="#DejaVuSans-2e" x="127.246094"/>
       <use xlink:href="#DejaVuSans-35" x="159.033203"/>
      </g>
     </g>
    </g>
    <g id="ytick_9">
     <g id="line2d_33">
      <path d="M 57.6 47.667213 
L 414.72 47.667213 
" clip-path="url(#pfcf1215aed)" style="fill: none; stroke-dasharray: 3.2,0.8,0.5,0.8; stroke-dashoffset: 0; stroke: #a9a9a9; stroke-width: 0.5"/>
     </g>
     <g id="line2d_34">
      <g>
       <use xlink:href="#mbdd6c87df4" x="57.6" y="47.667213" style="stroke: #000000; stroke-width: 0.8"/>
      </g>
     </g>
     <g id="text_18">
      <!-- 15.0 -->
      <g transform="translate(28.334375 51.466432)scale(0.1 -0.1)">
       <use xlink:href="#DejaVuSans-31"/>
       <use xlink:href="#DejaVuSans-35" x="63.623047"/>
       <use xlink:href="#DejaVuSans-2e" x="127.246094"/>
       <use xlink:href="#DejaVuSans-30" x="159.033203"/>
      </g>
     </g>
    </g>
    <g id="text_19">
     <!-- Inductance [mH] -->
     <g transform="translate(20.2375 216.403781)rotate(-90)scale(0.1 -0.1)">
      <defs>
       <path id="DejaVuSans-49" d="M 628 4666 
L 1259 4666 
L 1259 0 
L 628 0 
L 628 4666 
z
" transform="scale(0.015625)"/>
       <path id="DejaVuSans-75" d="M 544 1381 
L 544 3500 
L 1119 3500 
L 1119 1403 
Q 1119 906 1312 657 
Q 1506 409 1894 409 
Q 2359 409 2629 706 
Q 2900 1003 2900 1516 
L 2900 3500 
L 3475 3500 
L 3475 0 
L 2900 0 
L 2900 538 
Q 2691 219 2414 64 
Q 2138 -91 1772 -91 
Q 1169 -91 856 284 
Q 544 659 544 1381 
z
M 1991 3584 
L 1991 3584 
z
" transform="scale(0.015625)"/>
       <path id="DejaVuSans-63" d="M 3122 3366 
L 3122 2828 
Q 2878 2963 2633 3030 
Q 2388 3097 2138 3097 
Q 1578 3097 1268 2742 
Q 959 2388 959 1747 
Q 959 1106 1268 751 
Q 1578 397 2138 397 
Q 2388 397 2633 464 
Q 2878 531 3122 666 
L 3122 134 
Q 2881 22 2623 -34 
Q 2366 -91 2075 -91 
Q 1284 -91 818 406 
Q 353 903 353 1747 
Q 353 2603 823 3093 
Q 1294 3584 2113 3584 
Q 2378 3584 2631 3529 
Q 2884 3475 3122 3366 
z
" transform="scale(0.015625)"/>
       <path id="DejaVuSans-61" d="M 2194 1759 
Q 1497 1759 1228 1600 
Q 959 1441 959 1056 
Q 959 750 1161 570 
Q 1363 391 1709 391 
Q 2188 391 2477 730 
Q 2766 1069 2766 1631 
L 2766 1759 
L 2194 1759 
z
M 3341 1997 
L 3341 0 
L 2766 0 
L 2766 531 
Q 2569 213 2275 61 
Q 1981 -91 1556 -91 
Q 1019 -91 701 211 
Q 384 513 384 1019 
Q 384 1609 779 1909 
Q 1175 2209 1959 2209 
L 2766 2209 
L 2766 2266 
Q 2766 2663 2505 2880 
Q 2244 3097 1772 3097 
Q 1472 3097 1187 3025 
Q 903 2953 641 2809 
L 641 3341 
Q 956 3463 1253 3523 
Q 1550 3584 1831 3584 
Q 2591 3584 2966 3190 
Q 3341 2797 3341 1997 
z
" transform="scale(0.015625)"/>
       <path id="DejaVuSans-6d" d="M 3328 2828 
Q 3544 3216 3844 3400 
Q 4144 3584 4550 3584 
Q 5097 3584 5394 3201 
Q 5691 2819 5691 2113 
L 5691 0 
L 5113 0 
L 5113 2094 
Q 5113 2597 4934 2840 
Q 4756 3084 4391 3084 
Q 3944 3084 3684 2787 
Q 3425 2491 3425 1978 
L 3425 0 
L 2847 0 
L 2847 2094 
Q 2847 2600 2669 2842 
Q 2491 3084 2119 3084 
Q 1678 3084 1418 2786 
Q 1159 2488 1159 1978 
L 1159 0 
L 581 0 
L 581 3500 
L 1159 3500 
L 1159 2956 
Q 1356 3278 1631 3431 
Q 1906 3584 2284 3584 
Q 2666 3584 2933 3390 
Q 3200 3197 3328 2828 
z
" transform="scale(0.015625)"/>
       <path id="DejaVuSans-48" d="M 628 4666 
L 1259 4666 
L 1259 2753 
L 3553 2753 
L 3553 4666 
L 4184 4666 
L 4184 0 
L 3553 0 
L 3553 2222 
L 1259 2222 
L 1259 0 
L 628 0 
L 628 4666 
z
" transform="scale(0.015625)"/>
      </defs>
      <use xlink:href="#DejaVuSans-49"/>
      <use xlink:href="#DejaVuSans-6e" x="29.492188"/>
      <use xlink:href="#DejaVuSans-64" x="92.871094"/>
      <use xlink:href="#DejaVuSans-75" x="156.347656"/>
      <use xlink:href="#DejaVuSans-63" x="219.726562"/>
      <use xlink:href="#DejaVuSans-74" x="274.707031"/>
      <use xlink:href="#DejaVuSans-61" x="313.916016"/>
      <use xlink:href="#DejaVuSans-6e" x="375.195312"/>
      <use xlink:href="#DejaVuSans-63" x="438.574219"/>
      <use xlink:href="#DejaVuSans-65" x="493.554688"/>
      <use xlink:href="#DejaVuSans-20" x="555.078125"/>
      <use xlink:href="#DejaVuSans-5b" x="586.865234"/>
      <use xlink:href="#DejaVuSans-6d" x="625.878906"/>
      <use xlink:href="#DejaVuSans-48" x="723.291016"/>
      <use xlink:href="#DejaVuSans-5d" x="798.486328"/>
     </g>
    </g>
   </g>
   <g id="line2d_35">
    <path d="M 73.832727 53.575764 
L 78.341818 55.383008 
L 82.850909 59.504815 
L 87.36 65.114985 
L 91.869091 71.770636 
L 96.378182 79.280977 
L 100.887273 86.683807 
L 105.396364 95.320053 
L 109.905455 106.665409 
L 114.414545 119.790656 
L 118.923636 131.351984 
L 123.432727 141.619172 
L 127.941818 150.842696 
L 132.450909 160.320794 
L 136.96 167.427693 
L 141.469091 173.323695 
L 145.978182 178.720072 
L 150.487273 183.107383 
L 154.996364 185.409982 
L 159.505455 183.10745 
L 164.014545 178.720269 
L 168.523636 173.323583 
L 173.032727 167.429827 
L 177.541818 160.320559 
L 182.050909 150.842624 
L 186.56 141.618888 
L 191.069091 131.356061 
L 195.578182 119.790466 
L 200.087273 106.665175 
L 204.596364 95.320034 
L 209.105455 86.683793 
L 213.614545 79.280852 
L 218.123636 71.771281 
L 222.632727 65.114963 
L 227.141818 59.500966 
L 231.650909 55.383103 
L 236.16 53.568 
L 240.669091 55.383009 
L 245.178182 59.504815 
L 249.687273 65.114985 
L 254.196364 71.770636 
L 258.705455 79.280977 
L 263.214545 86.683807 
L 267.723636 95.320053 
L 272.232727 106.665409 
L 276.741818 119.790656 
L 281.250909 131.351984 
L 285.76 141.619172 
L 290.269091 150.84268 
L 294.778182 160.320794 
L 299.287273 167.427693 
L 303.796364 173.323695 
L 308.305455 178.720072 
L 312.814545 183.107383 
L 317.323636 185.409982 
L 321.832727 183.10745 
L 326.341818 178.720269 
L 330.850909 173.323583 
L 335.36 167.429827 
L 339.869091 160.320559 
L 344.378182 150.842624 
L 348.887273 141.618888 
L 353.396364 131.356061 
L 357.905455 119.790466 
L 362.414545 106.665175 
L 366.923636 95.320034 
L 371.432727 86.683793 
L 375.941818 79.280852 
L 380.450909 71.771281 
L 384.96 65.114963 
L 389.469091 59.500966 
L 393.978182 55.383103 
L 398.487273 53.568 
" clip-path="url(#pfcf1215aed)" style="fill: none; stroke: #1f77b4; stroke-width: 1.5; stroke-linecap: square"/>
   </g>
   <g id="line2d_36">
    <path d="M 73.832727 232.824845 
L 78.341818 221.920146 
L 82.850909 211.761206 
L 87.36 201.728601 
L 91.869091 191.238639 
L 96.378182 182.194304 
L 100.887273 175.825746 
L 105.396364 172.827553 
L 109.905455 171.06372 
L 114.414545 170.53996 
L 118.923636 170.754136 
L 123.432727 172.347071 
L 127.941818 176.664121 
L 132.450909 182.929896 
L 136.96 191.104377 
L 141.469091 201.069514 
L 145.978182 212.693455 
L 150.487273 223.618295 
L 154.996364 232.825287 
L 159.505455 242.031912 
L 164.014545 252.956528 
L 168.523636 264.580735 
L 173.032727 274.549511 
L 177.541818 282.72041 
L 182.050909 288.986356 
L 186.56 293.303174 
L 191.069091 294.896211 
L 195.578182 295.11015 
L 200.087273 294.586671 
L 204.596364 292.822413 
L 209.105455 289.824772 
L 213.614545 283.45578 
L 218.123636 274.411446 
L 222.632727 263.921247 
L 227.141818 253.896116 
L 231.650909 243.729639 
L 236.16 232.82498 
L 240.669091 221.920147 
L 245.178182 211.761206 
L 249.687273 201.728601 
L 254.196364 191.238639 
L 258.705455 182.194304 
L 263.214545 175.825746 
L 267.723636 172.827553 
L 272.232727 171.06372 
L 276.741818 170.53996 
L 281.250909 170.754136 
L 285.76 172.347071 
L 290.269091 176.66413 
L 294.778182 182.929896 
L 299.287273 191.104377 
L 303.796364 201.069514 
L 308.305455 212.693455 
L 312.814545 223.618295 
L 317.323636 232.825287 
L 321.832727 242.031912 
L 326.341818 252.956528 
L 330.850909 264.580735 
L 335.36 274.549511 
L 339.869091 282.72041 
L 344.378182 288.986356 
L 348.887273 293.303174 
L 353.396364 294.896211 
L 357.905455 295.11015 
L 362.414545 294.586671 
L 366.923636 292.822413 
L 371.432727 289.824772 
L 375.941818 283.45578 
L 380.450909 274.411446 
L 384.96 263.921247 
L 389.469091 253.896116 
L 393.978182 243.729639 
L 398.487273 232.82498 
" clip-path="url(#pfcf1215aed)" style="fill: none; stroke: #ff7f0e; stroke-width: 1.5; stroke-linecap: square"/>
   </g>
   <g id="line2d_37">
    <path d="M 73.832727 232.824811 
L 78.341818 222.134706 
L 82.850909 212.236709 
L 87.36 202.106451 
L 91.869091 191.209506 
L 96.378182 182.08767 
L 100.887273 175.82525 
L 105.396364 172.934085 
L 109.905455 171.092619 
L 114.414545 170.162043 
L 118.923636 170.270989 
L 123.432727 172.132433 
L 127.941818 176.663747 
L 132.450909 183.144485 
L 136.96 191.579836 
L 141.469091 201.447296 
L 145.978182 212.664219 
L 150.487273 223.511553 
L 154.996364 232.82469 
L 159.505455 242.138367 
L 164.014545 252.985381 
L 168.523636 264.202798 
L 173.032727 274.066362 
L 177.541818 282.505786 
L 182.050909 288.986143 
L 186.56 293.517826 
L 191.069091 295.371731 
L 195.578182 295.488 
L 200.087273 294.55748 
L 204.596364 292.715707 
L 209.105455 289.824222 
L 213.614545 283.562279 
L 218.123636 274.440315 
L 222.632727 263.543271 
L 227.141818 253.412945 
L 231.650909 243.514918 
L 236.16 232.824762 
L 240.669091 222.134706 
L 245.178182 212.236709 
L 249.687273 202.106451 
L 254.196364 191.209506 
L 258.705455 182.08767 
L 263.214545 175.82525 
L 267.723636 172.934085 
L 272.232727 171.092619 
L 276.741818 170.162043 
L 281.250909 170.270989 
L 285.76 172.132433 
L 290.269091 176.66372 
L 294.778182 183.144485 
L 299.287273 191.579836 
L 303.796364 201.447296 
L 308.305455 212.664219 
L 312.814545 223.511553 
L 317.323636 232.82469 
L 321.832727 242.138367 
L 326.341818 252.985381 
L 330.850909 264.202798 
L 335.36 274.066362 
L 339.869091 282.505786 
L 344.378182 288.986143 
L 348.887273 293.517826 
L 353.396364 295.371731 
L 357.905455 295.488 
L 362.414545 294.55748 
L 366.923636 292.715707 
L 371.432727 289.824222 
L 375.941818 283.562279 
L 380.450909 274.440315 
L 384.96 263.543271 
L 389.469091 253.412945 
L 393.978182 243.514918 
L 398.487273 232.824762 
" clip-path="url(#pfcf1215aed)" style="fill: none; stroke: #2ca02c; stroke-width: 1.5; stroke-linecap: square"/>
   </g>
   <g id="line2d_38">
    <path d="M 73.832727 183.267148 
L 78.341818 182.831917 
L 82.850909 179.354055 
L 87.36 173.704376 
L 91.869091 166.333327 
L 96.378182 159.191454 
L 100.887273 152.501521 
L 105.396364 143.15255 
L 109.905455 131.439738 
L 114.414545 119.029478 
L 118.923636 107.504003 
L 123.432727 96.597058 
L 127.941818 85.994095 
L 132.450909 77.895634 
L 136.96 71.432585 
L 141.469091 65.496849 
L 145.978182 59.384906 
L 150.487273 55.365811 
L 154.996364 53.775864 
L 159.505455 55.365362 
L 164.014545 59.38471 
L 168.523636 65.496031 
L 173.032727 71.42539 
L 177.541818 77.894631 
L 182.050909 85.992924 
L 186.56 96.596225 
L 191.069091 107.502991 
L 195.578182 119.028956 
L 200.087273 131.438733 
L 204.596364 143.15218 
L 209.105455 152.501172 
L 213.614545 159.191269 
L 218.123636 166.333224 
L 222.632727 173.70435 
L 227.141818 179.354074 
L 231.650909 182.83193 
L 236.16 183.267372 
L 240.669091 182.831917 
L 245.178182 179.354055 
L 249.687273 173.704376 
L 254.196364 166.333327 
L 258.705455 159.191454 
L 263.214545 152.501521 
L 267.723636 143.15255 
L 272.232727 131.439738 
L 276.741818 119.029478 
L 281.250909 107.504003 
L 285.76 96.597058 
L 290.269091 85.99411 
L 294.778182 77.895634 
L 299.287273 71.432585 
L 303.796364 65.496849 
L 308.305455 59.384906 
L 312.814545 55.365811 
L 317.323636 53.775864 
L 321.832727 55.365362 
L 326.341818 59.38471 
L 330.850909 65.496031 
L 335.36 71.42539 
L 339.869091 77.894631 
L 344.378182 85.992924 
L 348.887273 96.596225 
L 353.396364 107.502991 
L 357.905455 119.028956 
L 362.414545 131.438733 
L 366.923636 143.15218 
L 371.432727 152.501172 
L 375.941818 159.191269 
L 380.450909 166.333224 
L 384.96 173.70435 
L 389.469091 179.354074 
L 393.978182 182.83193 
L 398.487273 183.267372 
" clip-path="url(#pfcf1215aed)" style="fill: none; stroke: #d62728; stroke-width: 1.5; stroke-linecap: square"/>
   </g>
   <g id="line2d_39">
    <path d="M 73.832727 232.237521 
L 78.341818 232.237512 
L 82.850909 232.23743 
L 87.36 232.237478 
L 91.869091 232.237514 
L 96.378182 232.237567 
L 100.887273 232.23756 
L 105.396364 232.237567 
L 109.905455 232.237515 
L 114.414545 232.23748 
L 118.923636 232.237431 
L 123.432727 232.237514 
L 127.941818 232.237525 
L 132.450909 232.237514 
L 136.96 232.237432 
L 141.469091 232.23748 
L 145.978182 232.237515 
L 150.487273 232.237567 
L 154.996364 232.237559 
L 159.505455 232.237567 
L 164.014545 232.237514 
L 168.523636 232.237478 
L 173.032727 232.237429 
L 177.541818 232.237511 
L 182.050909 232.237522 
L 186.56 232.237511 
L 191.069091 232.23743 
L 195.578182 232.237478 
L 200.087273 232.237513 
L 204.596364 232.237566 
L 209.105455 232.237559 
L 213.614545 232.237566 
L 218.123636 232.237513 
L 222.632727 232.237478 
L 227.141818 232.237429 
L 231.650909 232.237512 
L 236.16 232.237522 
L 240.669091 232.237512 
L 245.178182 232.23743 
L 249.687273 232.237478 
L 254.196364 232.237514 
L 258.705455 232.237567 
L 263.214545 232.23756 
L 267.723636 232.237567 
L 272.232727 232.237515 
L 276.741818 232.23748 
L 281.250909 232.237431 
L 285.76 232.237514 
L 290.269091 232.237525 
L 294.778182 232.237514 
L 299.287273 232.237432 
L 303.796364 232.23748 
L 308.305455 232.237515 
L 312.814545 232.237567 
L 317.323636 232.237559 
L 321.832727 232.237567 
L 326.341818 232.237514 
L 330.850909 232.237478 
L 335.36 232.237429 
L 339.869091 232.237511 
L 344.378182 232.237522 
L 348.887273 232.237511 
L 353.396364 232.23743 
L 357.905455 232.237478 
L 362.414545 232.237513 
L 366.923636 232.237566 
L 371.432727 232.237559 
L 375.941818 232.237566 
L 380.450909 232.237513 
L 384.96 232.237478 
L 389.469091 232.237429 
L 393.978182 232.237512 
L 398.487273 232.237522 
" clip-path="url(#pfcf1215aed)" style="fill: none; stroke: #9467bd; stroke-width: 1.5; stroke-linecap: square"/>
   </g>
   <g id="patch_3">
    <path d="M 57.6 307.584 
L 57.6 41.472 
" style="fill: none; stroke: #000000; stroke-width: 0.8; stroke-linejoin: miter; stroke-linecap: square"/>
   </g>
   <g id="patch_4">
    <path d="M 414.72 307.584 
L 414.72 41.472 
" style="fill: none; stroke: #000000; stroke-width: 0.8; stroke-linejoin: miter; stroke-linecap: square"/>
   </g>
   <g id="patch_5">
    <path d="M 57.6 307.584 
L 414.72 307.584 
" style="fill: none; stroke: #000000; stroke-width: 0.8; stroke-linejoin: miter; stroke-linecap: square"/>
   </g>
   <g id="patch_6">
    <path d="M 57.6 41.472 
L 414.72 41.472 
" style="fill: none; stroke: #000000; stroke-width: 0.8; stroke-linejoin: miter; stroke-linecap: square"/>
   </g>
   <g id="text_20">
    <!-- $\alpha \beta \gamma$ Inductances -->
    <g transform="translate(186.48 35.472)scale(0.12 -0.12)">
     <defs>
      <path id="DejaVuSans-Oblique-3b1" d="M 2619 1628 
L 2622 2350 
Q 2625 3088 2069 3091 
Q 1653 3094 1394 2747 
Q 1069 2319 959 1747 
Q 825 1059 994 731 
Q 1169 397 1547 397 
Q 1966 397 2319 1063 
L 2619 1628 
z
M 2166 3578 
Q 3141 3594 3128 2584 
Q 3128 2584 3616 3500 
L 4128 3500 
L 3119 1603 
L 3109 919 
Q 3109 766 3194 638 
Q 3291 488 3391 488 
L 3669 488 
L 3575 0 
L 3228 0 
Q 2934 0 2722 263 
Q 2622 394 2619 669 
Q 2416 334 2066 50 
Q 1900 -81 1453 -78 
Q 722 -72 456 397 
Q 184 884 353 1747 
Q 534 2675 1009 3097 
Q 1544 3569 2166 3578 
z
" transform="scale(0.015625)"/>
      <path id="DejaVuSans-Oblique-3b2" d="M 872 216 
L 572 -1331 
L -6 -1331 
L 928 3478 
Q 1206 4903 2538 4903 
Q 3888 4903 3659 3700 
Q 3503 2844 2894 2531 
Q 3713 2250 3553 1416 
Q 3272 -69 1759 -66 
Q 1097 -63 872 216 
z
M 1019 966 
Q 1259 422 1875 425 
Q 2775 425 2966 1406 
Q 3138 2288 1675 2219 
L 1778 2750 
Q 2909 2731 3106 3750 
Q 3241 4438 2509 4434 
Q 1691 4434 1503 3459 
L 1019 966 
z
" transform="scale(0.015625)"/>
      <path id="DejaVuSans-Oblique-3b3" d="M 1491 2950 
L 1838 788 
L 3456 3500 
L 4066 3500 
L 1972 0 
L 1713 -1331 
L 1138 -1331 
L 1397 0 
L 988 2613 
Q 925 3006 628 3006 
L 475 3006 
L 569 3500 
L 788 3500 
Q 1403 3500 1491 2950 
z
" transform="scale(0.015625)"/>
      <path id="DejaVuSans-73" d="M 2834 3397 
L 2834 2853 
Q 2591 2978 2328 3040 
Q 2066 3103 1784 3103 
Q 1356 3103 1142 2972 
Q 928 2841 928 2578 
Q 928 2378 1081 2264 
Q 1234 2150 1697 2047 
L 1894 2003 
Q 2506 1872 2764 1633 
Q 3022 1394 3022 966 
Q 3022 478 2636 193 
Q 2250 -91 1575 -91 
Q 1294 -91 989 -36 
Q 684 19 347 128 
L 347 722 
Q 666 556 975 473 
Q 1284 391 1588 391 
Q 1994 391 2212 530 
Q 2431 669 2431 922 
Q 2431 1156 2273 1281 
Q 2116 1406 1581 1522 
L 1381 1569 
Q 847 1681 609 1914 
Q 372 2147 372 2553 
Q 372 3047 722 3315 
Q 1072 3584 1716 3584 
Q 2034 3584 2315 3537 
Q 2597 3491 2834 3397 
z
" transform="scale(0.015625)"/>
     </defs>
     <use xlink:href="#DejaVuSans-Oblique-3b1" transform="translate(0 0.390625)"/>
     <use xlink:href="#DejaVuSans-Oblique-3b2" transform="translate(65.917969 0.390625)"/>
     <use xlink:href="#DejaVuSans-Oblique-3b3" transform="translate(129.736328 0.390625)"/>
     <use xlink:href="#DejaVuSans-20" transform="translate(188.916016 0.390625)"/>
     <use xlink:href="#DejaVuSans-49" transform="translate(220.703125 0.390625)"/>
     <use xlink:href="#DejaVuSans-6e" transform="translate(250.195312 0.390625)"/>
     <use xlink:href="#DejaVuSans-64" transform="translate(313.574219 0.390625)"/>
     <use xlink:href="#DejaVuSans-75" transform="translate(377.050781 0.390625)"/>
     <use xlink:href="#DejaVuSans-63" transform="translate(440.429688 0.390625)"/>
     <use xlink:href="#DejaVuSans-74" transform="translate(495.410156 0.390625)"/>
     <use xlink:href="#DejaVuSans-61" transform="translate(534.619141 0.390625)"/>
     <use xlink:href="#DejaVuSans-6e" transform="translate(595.898438 0.390625)"/>
     <use xlink:href="#DejaVuSans-63" transform="translate(659.277344 0.390625)"/>
     <use xlink:href="#DejaVuSans-65" transform="translate(714.257812 0.390625)"/>
     <use xlink:href="#DejaVuSans-73" transform="translate(775.78125 0.390625)"/>
    </g>
   </g>
   <g id="legend_1">
    <g id="patch_7">
     <path d="M 349.8 222.811125 
L 406.32 222.811125 
Q 408.72 222.811125 408.72 220.411125 
L 408.72 128.644875 
Q 408.72 126.244875 406.32 126.244875 
L 349.8 126.244875 
Q 347.4 126.244875 347.4 128.644875 
L 347.4 220.411125 
Q 347.4 222.811125 349.8 222.811125 
z
" style="fill: #ffffff; opacity: 0.8; stroke: #cccccc; stroke-linejoin: miter"/>
    </g>
    <g id="line2d_40">
     <path d="M 352.2 135.963 
L 364.2 135.963 
L 376.2 135.963 
" style="fill: none; stroke: #1f77b4; stroke-width: 1.5; stroke-linecap: square"/>
    </g>
    <g id="text_21">
     <!-- $L_{\alpha \alpha}$ -->
     <g transform="translate(385.8 140.163)scale(0.12 -0.12)">
      <defs>
       <path id="DejaVuSans-Oblique-4c" d="M 1075 4666 
L 1709 4666 
L 909 525 
L 3181 525 
L 3078 0 
L 172 0 
L 1075 4666 
z
" transform="scale(0.015625)"/>
      </defs>
      <use xlink:href="#DejaVuSans-Oblique-4c" transform="translate(0 0.09375)"/>
      <use xlink:href="#DejaVuSans-Oblique-3b1" transform="translate(55.712891 -16.3125)scale(0.7)"/>
      <use xlink:href="#DejaVuSans-Oblique-3b1" transform="translate(101.855469 -16.3125)scale(0.7)"/>
     </g>
    </g>
    <g id="line2d_41">
     <path d="M 352.2 153.57675 
L 364.2 153.57675 
L 376.2 153.57675 
" style="fill: none; stroke: #ff7f0e; stroke-width: 1.5; stroke-linecap: square"/>
    </g>
    <g id="text_22">
     <!-- $L_{\alpha \beta}$ -->
     <g transform="translate(385.8 157.77675)scale(0.12 -0.12)">
      <use xlink:href="#DejaVuSans-Oblique-4c" transform="translate(0 0.09375)"/>
      <use xlink:href="#DejaVuSans-Oblique-3b1" transform="translate(55.712891 -16.3125)scale(0.7)"/>
      <use xlink:href="#DejaVuSans-Oblique-3b2" transform="translate(101.855469 -16.3125)scale(0.7)"/>
     </g>
    </g>
    <g id="line2d_42">
     <path d="M 352.2 172.414875 
L 364.2 172.414875 
L 376.2 172.414875 
" style="fill: none; stroke: #2ca02c; stroke-width: 1.5; stroke-linecap: square"/>
    </g>
    <g id="text_23">
     <!-- $L_{\beta \alpha}$ -->
     <g transform="translate(385.8 176.614875)scale(0.12 -0.12)">
      <use xlink:href="#DejaVuSans-Oblique-4c" transform="translate(0 0.09375)"/>
      <use xlink:href="#DejaVuSans-Oblique-3b2" transform="translate(55.712891 -16.3125)scale(0.7)"/>
      <use xlink:href="#DejaVuSans-Oblique-3b1" transform="translate(100.385742 -16.3125)scale(0.7)"/>
     </g>
    </g>
    <g id="line2d_43">
     <path d="M 352.2 191.253 
L 364.2 191.253 
L 376.2 191.253 
" style="fill: none; stroke: #d62728; stroke-width: 1.5; stroke-linecap: square"/>
    </g>
    <g id="text_24">
     <!-- $L_{\beta \beta}$ -->
     <g transform="translate(385.8 195.453)scale(0.12 -0.12)">
      <use xlink:href="#DejaVuSans-Oblique-4c" transform="translate(0 0.09375)"/>
      <use xlink:href="#DejaVuSans-Oblique-3b2" transform="translate(55.712891 -16.3125)scale(0.7)"/>
      <use xlink:href="#DejaVuSans-Oblique-3b2" transform="translate(100.385742 -16.3125)scale(0.7)"/>
     </g>
    </g>
    <g id="line2d_44">
     <path d="M 352.2 210.091125 
L 364.2 210.091125 
L 376.2 210.091125 
" style="fill: none; stroke: #9467bd; stroke-width: 1.5; stroke-linecap: square"/>
    </g>
    <g id="text_25">
     <!-- $L_{\gamma \gamma}$ -->
     <g transform="translate(385.8 214.291125)scale(0.12 -0.12)">
      <use xlink:href="#DejaVuSans-Oblique-4c" transform="translate(0 0.09375)"/>
      <use xlink:href="#DejaVuSans-Oblique-3b3" transform="translate(55.712891 -16.3125)scale(0.7)"/>
      <use xlink:href="#DejaVuSans-Oblique-3b3" transform="translate(97.138672 -16.3125)scale(0.7)"/>
     </g>
    </g>
   </g>
  </g>
 </g>
 <defs>
  <clipPath id="pfcf1215aed">
   <rect x="57.6" y="41.472" width="357.12" height="266.112"/>
  </clipPath>
 </defs>
</svg>
